<?xml version="1.0" encoding="UTF-8" standalone="no"?>
<!DOCTYPE svg PUBLIC "-//W3C//DTD SVG 1.1//EN" "http://www.w3.org/Graphics/SVG/1.1/DTD/svg11.dtd">
<svg width="100%" height="100%" viewBox="0 0 1024 1024" version="1.1" xmlns="http://www.w3.org/2000/svg" xmlns:xlink="http://www.w3.org/1999/xlink" xml:space="preserve" xmlns:serif="http://www.serif.com/" style="fill-rule:evenodd;clip-rule:evenodd;stroke-linejoin:round;stroke-miterlimit:2;">
    <g transform="matrix(1.70465,0,0,1.3408,52.1979,-137.66)">
        <path d="M423.457,866.392L-30.621,866.392L-30.621,102.67L570.09,102.67L570.09,679.969L423.457,866.392Z" style="fill:rgb(248,249,250);"/>
    </g>
    <g transform="matrix(2.91289,0,0,2.91289,-552.174,-1971.06)">
        <path d="M265.483,798.84L246.355,798.84L246.355,727.444L264.157,727.444C288.587,727.444 304.779,740.322 304.779,763.426C304.779,785.962 289.155,798.84 265.483,798.84ZM260.559,740.511L260.559,786.057L264.82,786.057C280.444,786.057 290.386,778.103 290.386,763.331C290.386,749.128 282.054,740.511 264.82,740.511L260.559,740.511ZM336.216,800.166C323.528,800.166 314.816,793.537 314.816,779.239L314.816,752.537L328.546,752.537L328.546,778.387C328.546,784.921 330.819,788.424 336.216,788.424C341.614,788.424 343.981,784.921 343.981,778.387L343.981,752.537L357.711,752.537L357.711,779.239C357.711,792.685 349.757,800.166 336.216,800.166ZM385.55,798.84L371.82,798.84L371.82,764.657L364.434,764.657L364.434,752.537L371.82,752.537L371.82,736.155L385.55,736.155L385.55,752.537L393.788,752.537L393.788,764.657L385.55,764.657L385.55,798.84ZM422.668,800.166C407.518,800.166 397.386,790.223 397.386,775.925C397.386,762.006 407.423,751.306 422.289,751.306C427.403,751.306 432.421,752.726 435.451,754.43L435.451,768.255C431.853,764.752 428.35,762.952 423.52,762.952C415.945,762.952 411.305,768.35 411.305,775.736C411.305,782.932 415.472,788.519 423.331,788.519C428.066,788.519 431.474,786.814 435.451,783.5L435.167,796.946C432.042,798.84 427.308,800.166 422.668,800.166ZM459.787,798.84L446.057,798.84L446.057,721.384L459.787,721.384L459.787,748.56C459.787,751.495 459.692,755.188 459.597,758.123L459.787,758.123C463.29,753.957 467.457,751.306 473.895,751.306C484.785,751.306 489.898,758.786 489.898,770.433L489.898,798.84L476.168,798.84L476.168,773.842C476.168,766.361 473.99,763.142 468.782,763.142C462.911,763.142 459.787,766.74 459.787,776.209L459.787,798.84Z"/>
        <g transform="matrix(1,0,0,1,2.93539,0)">
            <path d="M280.823,891.832C260.275,891.832 243.799,875.924 243.799,855.093C243.799,833.409 260.654,817.785 281.58,817.785C293.795,817.785 303.927,822.425 312.26,833.219L300.613,840.889C295.689,834.166 289.439,830.757 281.769,830.757C268.229,830.757 258.192,841.268 258.192,855.093C258.192,869.107 269.27,879.239 281.107,879.239C291.428,879.239 298.908,872.421 299.95,863.993L299.95,863.899L283.569,863.899L283.569,852.062L315.574,852.062L315.574,854.808C315.574,877.25 302.128,891.832 280.823,891.832ZM345.78,891.832C332.523,891.832 323.433,880.848 323.433,867.308C323.433,853.956 332.618,843.067 345.685,843.067C351.461,843.067 356.196,844.866 360.552,849.411L360.646,849.411L360.552,844.203L374.187,844.203L374.187,890.507L360.552,890.507L360.646,885.109L360.552,885.109C356.006,889.654 351.556,891.832 345.78,891.832ZM349.094,880.185C356.385,880.185 361.214,874.693 361.214,867.402C361.214,860.206 356.385,854.714 349.189,854.714C341.992,854.714 337.258,860.206 337.258,867.308C337.258,874.693 341.708,880.185 349.094,880.185ZM400.037,890.507L386.497,890.507L386.497,844.203L399.848,844.203L399.659,849.506L399.943,849.506C402.499,845.529 406.571,842.972 412.347,842.972C418.691,842.972 422.668,845.529 425.414,850.642L425.604,850.642C429.012,845.624 433.558,842.972 440.091,842.972C451.075,842.972 456.378,850.074 456.378,861.816L456.378,890.507L442.837,890.507L442.837,865.508C442.837,857.933 440.943,854.808 435.83,854.808C430.338,854.808 428.16,858.501 428.16,866.077L428.16,890.507L414.62,890.507L414.62,865.035C414.62,858.123 412.631,854.808 407.802,854.808C402.31,854.808 400.037,858.501 400.037,866.077L400.037,890.507ZM512.245,867.781L512.245,870.243L479.103,870.243C479.577,877.061 483.175,881.511 489.519,881.511C493.97,881.511 497,879.428 499.556,874.883L511.582,878.86C507.416,887.477 499.178,891.832 489.33,891.832C475.032,891.832 465.184,882.458 465.184,867.497C465.184,852.631 475.032,842.972 488.856,842.972C503.155,842.972 512.245,852.347 512.245,867.781ZM479.672,861.247L498.325,861.247C497.663,856.229 494.159,853.293 489.046,853.293C484.027,853.293 480.713,856.513 479.672,861.247Z"/>
        </g>
        <g transform="matrix(1,0,0,1,-31.2477,0)">
            <path d="M254.972,983.499C250.522,983.499 246.734,980.279 246.734,975.734C246.734,971.189 250.522,967.97 254.972,967.97C259.328,967.97 263.21,971.189 263.21,975.734C263.21,980.279 259.328,983.499 254.972,983.499ZM391.42,959.448L391.42,961.91L358.279,961.91C358.752,968.727 362.351,973.178 368.695,973.178C373.145,973.178 376.175,971.095 378.732,966.549L390.758,970.526C386.591,979.143 378.353,983.499 368.506,983.499C354.207,983.499 344.36,974.125 344.36,959.164C344.36,944.297 354.207,934.639 368.032,934.639C382.33,934.639 391.42,944.013 391.42,959.448ZM358.847,952.914L377.501,952.914C376.838,947.896 373.335,944.96 368.221,944.96C363.203,944.96 359.889,948.18 358.847,952.914ZM422.573,982.173L414.62,982.173L393.125,935.87L408.086,935.87L418.691,961.152L429.202,935.87L444.257,935.87L422.573,982.173ZM297.109,982.173L277.982,982.173L277.982,910.777L295.784,910.777C320.214,910.777 336.406,923.655 336.406,946.759C336.406,969.295 320.782,982.173 297.109,982.173ZM292.185,923.844L292.185,969.39L296.446,969.39C312.07,969.39 322.013,961.436 322.013,946.665C322.013,932.461 313.68,923.844 296.446,923.844L292.185,923.844Z"/>
            <clipPath id="_clip1">
                <path d="M254.972,983.499C250.522,983.499 246.734,980.279 246.734,975.734C246.734,971.189 250.522,967.97 254.972,967.97C259.328,967.97 263.21,971.189 263.21,975.734C263.21,980.279 259.328,983.499 254.972,983.499ZM391.42,959.448L391.42,961.91L358.279,961.91C358.752,968.727 362.351,973.178 368.695,973.178C373.145,973.178 376.175,971.095 378.732,966.549L390.758,970.526C386.591,979.143 378.353,983.499 368.506,983.499C354.207,983.499 344.36,974.125 344.36,959.164C344.36,944.297 354.207,934.639 368.032,934.639C382.33,934.639 391.42,944.013 391.42,959.448ZM358.847,952.914L377.501,952.914C376.838,947.896 373.335,944.96 368.221,944.96C363.203,944.96 359.889,948.18 358.847,952.914ZM422.573,982.173L414.62,982.173L393.125,935.87L408.086,935.87L418.691,961.152L429.202,935.87L444.257,935.87L422.573,982.173ZM297.109,982.173L277.982,982.173L277.982,910.777L295.784,910.777C320.214,910.777 336.406,923.655 336.406,946.759C336.406,969.295 320.782,982.173 297.109,982.173ZM292.185,923.844L292.185,969.39L296.446,969.39C312.07,969.39 322.013,961.436 322.013,946.665C322.013,932.461 313.68,923.844 296.446,923.844L292.185,923.844Z"/>
            </clipPath>
            <g clip-path="url(#_clip1)">
                <g transform="matrix(0.343302,0,0,0.343302,220.81,676.67)">
                    <rect x="-15.493" y="798.987" width="165.54" height="143.407" style="fill:rgb(131,14,176);"/>
                </g>
            </g>
        </g>
    </g>
</svg>
