<?xml version="1.0" encoding="UTF-8" standalone="no"?>
<!DOCTYPE svg PUBLIC "-//W3C//DTD SVG 1.1//EN" "http://www.w3.org/Graphics/SVG/1.1/DTD/svg11.dtd">
<svg width="100%" height="100%" viewBox="0 0 1024 1024" version="1.1" xmlns="http://www.w3.org/2000/svg" xmlns:xlink="http://www.w3.org/1999/xlink" xml:space="preserve" xmlns:serif="http://www.serif.com/" style="fill-rule:evenodd;clip-rule:evenodd;stroke-linejoin:round;stroke-miterlimit:2;">
    <g transform="matrix(1.1573,0,0,1.1573,-80.5372,-80.5375)">
        <g transform="matrix(2.68279,0,0,2.3286,-352.852,-861.868)">
            <path d="M450.936,430.421L450.936,749.579C450.936,766.364 439.108,779.991 424.539,779.991L220.202,779.991C205.634,779.991 193.806,766.364 193.806,749.579L193.806,430.421C193.806,413.636 205.634,400.009 220.202,400.009L424.539,400.009C439.108,400.009 450.936,413.636 450.936,430.421Z"/>
        </g>
        <g transform="matrix(2.68279,0,0,2.3286,-352.852,-861.868)">
            <path d="M444,430.421L444,749.579C444,761.954 435.28,772 424.539,772L220.202,772C209.462,772 200.742,761.954 200.742,749.579L200.742,430.421C200.742,418.046 209.462,408 220.202,408L424.539,408C435.28,408 444,418.046 444,430.421ZM338.725,750.402L334.604,741.161C335.742,740.511 336.602,739.675 337.185,738.652C337.777,737.618 338.073,736.206 338.073,734.415C338.073,732.912 337.754,731.633 337.115,730.578C336.486,729.523 335.594,728.729 334.437,728.196C333.281,727.653 331.916,727.381 330.344,727.381L322.199,727.381L322.199,750.658L327.374,750.658L327.374,742.792L329.775,742.792L333.175,750.658L338.725,750.658L338.725,750.402ZM327.374,737.948L327.374,732.209L330.344,732.209C331.158,732.209 331.787,732.459 332.231,732.96C332.675,733.461 332.897,734.17 332.897,735.086C332.897,736.024 332.68,736.738 332.245,737.229C331.819,737.708 331.186,737.948 330.344,737.948L327.374,737.948ZM234.185,676.584L252.761,676.584L252.761,666.563L223.442,666.563L223.442,714.875L252.646,714.875L252.646,704.887L234.185,704.887L234.185,694.933L249.766,694.933L249.766,685.31L234.185,685.31L234.185,676.584ZM370.862,727.381L365.742,727.381L363.605,741.657L361.01,727.381L356.598,727.381L354.072,741.609L351.935,727.381L346.801,727.381L351.005,750.658L356.431,750.658L358.804,738.028L361.246,750.658L366.672,750.658L370.862,727.381ZM397.317,644.603L247.424,644.603L247.424,650.787L397.317,650.787L397.317,644.603ZM405.011,750.402L400.89,741.161C402.028,740.511 402.888,739.675 403.471,738.652C404.063,737.618 404.359,736.206 404.359,734.415C404.359,732.912 404.04,731.633 403.402,730.578C402.773,729.523 401.88,728.729 400.724,728.196C399.567,727.653 398.203,727.381 396.63,727.381L388.485,727.381L388.485,750.658L393.661,750.658L393.661,742.792L396.061,742.792L399.461,750.658L405.011,750.658L405.011,750.402ZM393.661,737.948L393.661,732.209L396.63,732.209C397.444,732.209 398.073,732.459 398.517,732.96C398.961,733.461 399.183,734.17 399.183,735.086C399.183,736.024 398.966,736.738 398.531,737.229C398.106,737.708 397.472,737.948 396.63,737.948L393.661,737.948ZM344.165,479.399L353.496,472.112C355.451,470.586 356.093,467.609 354.987,465.206L345.936,445.536C345.559,444.719 345.005,444.028 344.326,443.533L325.965,430.117C324.409,428.981 322.417,429.016 320.893,430.206L244.829,489.612C242.874,491.138 242.232,494.115 243.338,496.518L296.844,612.792C297.221,613.609 297.775,614.3 298.453,614.795L316.815,628.211C318.371,629.347 320.363,629.312 321.887,628.122L399.911,567.186C401.865,565.66 402.507,562.683 401.402,560.28L392.387,540.69C392.011,539.872 391.456,539.181 390.778,538.686L372.415,525.27C370.86,524.134 368.868,524.169 367.344,525.359L323.266,559.784L322.456,558.026L370.525,520.485C372.479,518.959 373.121,515.982 372.016,513.579L363.001,493.989C362.624,493.171 362.07,492.481 361.392,491.985L344.165,479.399ZM369.939,529.77L378.954,549.36L300.93,610.296L247.423,494.022L323.488,434.616L332.539,454.286L277.188,497.515L289.05,523.292L340.553,483.069L349.568,502.66L298.065,542.883L312.628,574.529L369.939,529.77ZM253.109,746.805L254.136,750.658L259.714,750.658L252.304,727.381L247.392,727.381L240.024,750.658L245.588,750.658L246.615,746.805L253.109,746.805ZM251.819,741.977L247.892,741.977L249.848,734.623L251.819,741.977ZM242.549,727.381L236.749,727.381L232.975,743.783L229.2,727.381L223.442,727.381L230.089,750.658L235.847,750.658L242.549,727.381ZM294.613,727.381L287.994,727.381L287.994,750.658L294.738,750.658C296.505,750.658 298.096,750.178 299.511,749.219C300.926,748.26 302.036,746.933 302.841,745.238C303.646,743.533 304.049,741.609 304.049,739.467L304.049,738.588C304.049,736.445 303.642,734.522 302.827,732.816C302.023,731.111 300.903,729.779 299.469,728.82C298.045,727.86 296.426,727.381 294.613,727.381ZM298.748,738.556L298.748,739.467C298.748,741.588 298.401,743.181 297.707,744.247C297.013,745.313 296.023,745.846 294.738,745.846L293.17,745.846L293.17,732.209L294.613,732.209C295.963,732.209 296.99,732.747 297.693,733.824C298.396,734.889 298.748,736.467 298.748,738.556ZM401.313,666.563L387.575,666.563L387.575,714.875L401.572,714.875C405.239,714.875 408.541,713.879 411.479,711.888C414.417,709.897 416.721,707.143 418.391,703.626C420.062,700.087 420.897,696.094 420.897,691.648L420.897,689.823C420.897,685.377 420.052,681.384 418.362,677.845C416.692,674.305 414.369,671.54 411.393,669.549C408.436,667.559 405.076,666.563 401.313,666.563ZM409.895,689.757L409.895,691.648C409.895,696.05 409.175,699.357 407.735,701.569C406.295,703.781 404.241,704.887 401.572,704.887L398.317,704.887L398.317,676.584L401.313,676.584C404.116,676.584 406.247,677.701 407.706,679.935C409.165,682.147 409.895,685.421 409.895,689.757ZM412.38,732.209L420.886,732.209L420.886,727.381L407.204,727.381L407.204,750.658L412.38,750.658L412.38,741.657L420.178,741.657L420.178,736.845L412.38,736.845L412.38,732.209ZM303.824,666.563L293.196,666.563L288.761,696.194L283.376,666.563L274.217,666.563L268.975,696.094L264.54,666.563L253.884,666.563L262.611,714.875L273.871,714.875L278.796,688.662L283.865,714.875L295.126,714.875L303.824,666.563ZM377.8,732.209L386.75,732.209L386.75,727.381L372.625,727.381L372.625,750.658L386.695,750.658L386.695,745.846L377.8,745.846L377.8,741.05L385.307,741.05L385.307,736.413L377.8,736.413L377.8,732.209ZM343.453,691.615L343.453,689.856C343.453,685.012 342.656,680.787 341.062,677.181C339.488,673.553 337.29,670.766 334.467,668.819C331.664,666.873 328.467,665.899 324.877,665.899C321.248,665.899 318.032,666.873 315.229,668.819C312.425,670.766 310.237,673.553 308.662,677.181C307.107,680.787 306.329,685.012 306.329,689.856L306.329,691.615C306.329,696.459 307.107,700.695 308.662,704.323C310.237,707.929 312.425,710.705 315.229,712.651C318.051,714.576 321.286,715.538 324.934,715.538C328.525,715.538 331.722,714.576 334.525,712.651C337.328,710.705 339.517,707.929 341.091,704.323C342.666,700.695 343.453,696.459 343.453,691.615ZM332.48,689.79L332.48,691.615C332.48,696.017 331.827,699.423 330.522,701.834C329.216,704.246 327.354,705.451 324.934,705.451C322.4,705.451 320.489,704.268 319.203,701.901C317.936,699.512 317.302,696.083 317.302,691.615L317.302,689.79C317.302,680.61 319.827,676.02 324.877,676.02C327.315,676.02 329.187,677.203 330.493,679.57C331.818,681.915 332.48,685.321 332.48,689.79ZM381.584,697.786L381.584,666.563L370.842,666.563L370.842,697.786C370.842,700.507 370.362,702.487 369.402,703.726C368.442,704.942 366.963,705.551 364.967,705.551C362.97,705.551 361.472,704.942 360.474,703.726C359.475,702.487 358.976,700.507 358.976,697.786L358.976,666.563L348.176,666.563L348.176,697.786C348.176,701.525 348.867,704.732 350.25,707.409C351.651,710.063 353.61,712.087 356.125,713.481C358.659,714.852 361.607,715.538 364.967,715.538C368.365,715.538 371.312,714.852 373.808,713.481C376.304,712.109 378.224,710.096 379.568,707.442C380.912,704.765 381.584,701.547 381.584,697.786ZM311.514,732.209L320.464,732.209L320.464,727.381L306.338,727.381L306.338,750.658L320.409,750.658L320.409,745.846L311.514,745.846L311.514,741.05L319.021,741.05L319.021,736.413L311.514,736.413L311.514,732.209ZM272.924,750.658L278.072,750.658L278.072,727.381L272.91,727.381L272.91,740.906L266.181,727.381L261.005,727.381L261.005,750.658L266.181,750.658L266.181,737.117L272.924,750.658Z" style="fill:white;"/>
        </g>
    </g>
</svg>
