<?xml version="1.0" encoding="UTF-8" standalone="no"?>
<!DOCTYPE svg PUBLIC "-//W3C//DTD SVG 1.1//EN" "http://www.w3.org/Graphics/SVG/1.1/DTD/svg11.dtd">
<svg width="100%" height="100%" viewBox="0 0 1182 1182" version="1.1" xmlns="http://www.w3.org/2000/svg" xmlns:xlink="http://www.w3.org/1999/xlink" xml:space="preserve" xmlns:serif="http://www.serif.com/" style="fill-rule:evenodd;clip-rule:evenodd;stroke-linejoin:round;stroke-miterlimit:2;">
    <g transform="matrix(4.80853,0,0,4.80853,862.689,913.4)">
        <path d="M-3.71,-25.97L38.4,-25.97C22.13,11.65 -15.01,36.36 -56.59,36.36C-98.27,36.36 -135.33,11.68 -151.59,-25.97L-109.48,-25.97C-96.95,-9.78 -77.65,-0.14 -56.59,-0.14C-35.53,-0.14 -16.24,-9.78 -3.71,-25.97ZM-48.85,27.8L-50.14,20.29L-44.68,14.97L-52.22,13.87L-55.59,7.04L-58.97,13.87L-66.51,14.97L-61.05,20.29L-62.34,27.8L-55.59,24.25L-48.85,27.8ZM0,10.39L-1.29,2.87L4.17,-2.45L-3.38,-3.54L-6.75,-10.38L-10.12,-3.54L-17.66,-2.45L-12.21,2.87L-13.5,10.39L-6.75,6.84L0,10.39ZM-99.39,10.39L-100.68,2.87L-95.22,-2.45L-102.76,-3.54L-106.14,-10.38L-109.51,-3.54L-117.05,-2.45L-111.6,2.87L-112.88,10.39L-106.14,6.84L-99.39,10.39ZM-56.59,-170.64C-15.01,-170.64 22.12,-145.93 38.39,-108.31L-3.77,-108.31C-16.32,-124.33 -35.85,-134.14 -56.59,-134.14C-77.34,-134.14 -96.87,-124.33 -109.41,-108.31L-151.58,-108.31C-135.32,-145.97 -98.27,-170.64 -56.59,-170.64ZM-0.06,-128.08L-1.35,-135.6L4.1,-140.92L-3.44,-142.01L-6.81,-148.85L-10.18,-142.01L-17.73,-140.92L-12.27,-135.6L-13.56,-128.08L-6.81,-131.63L-0.06,-128.08ZM-48.85,-142.13L-50.14,-149.64L-44.68,-154.96L-52.22,-156.06L-55.59,-162.9L-58.97,-156.06L-66.51,-154.96L-61.05,-149.64L-62.34,-142.13L-55.59,-145.68L-48.85,-142.13ZM-99.45,-128.08L-100.74,-135.6L-95.28,-140.92L-102.83,-142.01L-106.2,-148.85L-109.57,-142.01L-117.11,-140.92L-111.66,-135.6L-112.95,-128.08L-106.2,-131.63L-99.45,-128.08ZM50.405,-102.81C59.225,-102.81 66.405,-95.63 66.405,-86.81L66.405,-47.47C66.405,-38.65 59.225,-31.47 50.405,-31.47L-163.595,-31.47C-172.425,-31.47 -179.595,-38.65 -179.595,-47.47L-179.595,-86.81C-179.595,-95.63 -172.425,-102.81 -163.595,-102.81L50.405,-102.81ZM33.255,-74.01L33.255,-86.67C30.895,-88.04 28.765,-88.73 26.875,-88.73C23.395,-88.73 20.295,-87.09 17.565,-83.81C14.105,-79.62 12.365,-74.15 12.365,-67.39C12.365,-60.66 14.105,-55.19 17.565,-51C20.295,-47.73 23.375,-46.09 26.815,-46.09C28.785,-46.09 30.935,-46.77 33.255,-48.14L33.255,-60.81C32.575,-59.57 31.895,-58.65 31.215,-58.05C29.945,-56.91 28.585,-56.34 27.125,-56.34C25.285,-56.34 23.675,-57.16 22.315,-58.82C20.595,-60.91 19.735,-63.77 19.735,-67.39C19.735,-71.04 20.595,-73.91 22.315,-76C23.675,-77.65 25.285,-78.48 27.125,-78.48C28.585,-78.48 29.945,-77.91 31.215,-76.77C31.905,-76.15 32.585,-75.23 33.255,-74.01ZM-151.305,-79.04L-151.305,-87.86L-166.855,-87.86L-166.855,-47.19L-151.305,-47.19L-151.305,-56.01L-159.745,-56.01L-159.745,-63.28L-151.765,-63.28L-151.765,-72.1L-159.745,-72.1L-159.745,-79.04L-151.305,-79.04ZM-129.115,-47.19L-120.555,-47.19L-130.855,-68.88L-121.955,-87.86L-130.675,-87.86L-134.915,-77.31L-138.975,-87.86L-147.725,-87.86L-138.975,-68.88L-149.665,-47.19L-141.075,-47.19L-134.955,-60.42L-129.115,-47.19ZM7.845,-47.19L7.845,-87.86L0.745,-87.86L0.745,-47.19L7.845,-47.19ZM53.305,-79.04L53.305,-87.86L37.755,-87.86L37.755,-47.19L53.305,-47.19L53.305,-56.01L44.865,-56.01L44.865,-63.28L52.845,-63.28L52.845,-72.1L44.865,-72.1L44.865,-79.04L53.305,-79.04ZM-101.505,-79.04L-101.505,-87.86L-120.275,-87.86L-120.275,-79.04L-114.485,-79.04L-114.485,-47.19L-107.385,-47.19L-107.385,-79.04L-101.505,-79.04ZM-84.495,-47.19L-75.675,-47.19L-84.255,-63.88C-82.645,-64.41 -81.375,-65.37 -80.455,-66.74C-79.015,-68.88 -78.295,-71.75 -78.295,-75.35C-78.295,-78.49 -78.915,-81.22 -80.175,-83.54C-81.725,-86.42 -84.105,-87.86 -87.335,-87.86L-98.385,-87.86L-98.385,-47.19L-91.275,-47.19L-91.275,-62.8L-84.495,-47.19ZM-89.955,-79.82C-88.465,-79.82 -87.381,-79.353 -86.715,-78.42C-86.011,-77.433 -85.655,-76.21 -85.655,-74.77C-85.655,-73.32 -86.009,-72.086 -86.715,-71.08C-87.37,-70.146 -88.455,-69.69 -89.955,-69.69L-91.275,-69.69L-91.275,-79.82L-89.955,-79.82ZM-4.985,-47.19L-4.985,-87.86L-12.085,-87.86L-12.085,-62.98L-25.145,-87.86L-32.255,-87.86L-32.255,-47.19L-25.145,-47.19L-25.145,-72.1L-12.085,-47.19L-4.985,-47.19ZM-54.325,-47.19L-46.735,-47.19L-57.025,-87.86L-64.765,-87.86L-75.275,-47.19L-67.765,-47.19L-65.885,-54.28L-56.085,-54.28L-54.325,-47.19ZM-63.925,-62.33L-60.945,-75.29L-58.005,-62.33L-63.925,-62.33Z" style="fill:rgb(40,138,67);"/>
    </g>
</svg>
